<?xml version="1.0" encoding="UTF-8"?><svg xmlns="http://www.w3.org/2000/svg" xmlns:xlink="http://www.w3.org/1999/xlink" data-name="Layer 1" height="789.9" preserveAspectRatio="xMidYMid meet" version="1.0" viewBox="9.6 49.3 845.9 789.9" width="845.9" zoomAndPan="magnify"><g id="change1_1"><path d="M585.27,760c-1.35,17.83,26.07,52.65,37.69,67.78,5.84,7.61-2.83,11.43-7.13,5.59-24-32.62-37.75-59.2-93.84-97.4-74.14-50.49-142.11-86.51-302.89-93-58.79-2.35-48.68,15.22-81.68,39.85-4.9,3.65-11.1-1.34-4.75-7.57,29.63-29.1,37.29-34.34,38-46.67,2.85-52.56-55.07-201.93-101.76-208-20.12-2.6-48.91,2.22-55.27,1.44a4.23,4.23,0,0,1-.83-8.28c1.81-.59,35-2.45,44.16-3.17,3.43-.27,11.45-3.58,17.68-10.77,1.39-1.6,2-4.9,4.87-12,30.94-76.6,40-250.77,16.45-271.8-41.6-37.09-48-43.47-43.06-47.7,5.79-5,8.3,6.55,28.61,22.11,33.7,25.81,51.27,28.1,107.63,32,77.43,5.33,96.73,5,135.09,3.2,95.67-4.48,181-16.76,206.6-21.9,27.76-5.56,30.72-38.47,37.44-51.35a4.26,4.26,0,0,1,8.06,2.65C576,57,563.85,88.94,563.8,89c-12.64,31.12,55.37,133.85,189,150.48,14.07,1.75,67.84-23.46,74.2-23.09a4.2,4.2,0,0,1,2.37,7.39c-12.85,10.47-53,7-75,55.66-43,94.86,15.22,231.1,67.14,260,27.57,15.34,28.35,13,31.54,16,2.46,2.3,1.26,7.49-2.42,8-7.46,1.06-24.73-17.28-79.79-26.38C742.62,532.44,598.72,582.63,585.27,760ZM493,566.46c-1.19,2.9-22.69-69-38.65-86.31-18.07-19.66-86.28-12.1-106.32,6.35l-38.85,35.89C299.86,531,350.46,499,454.33,542,481.05,553.08,490.77,567.26,493,566.46Zm-304-381.91c0-.1,64.39,57.9,70.3,60.55,7.51,3.38,14.61,6.74,21.46,6.59s60.24,2,109.5-11.27c75.91-20.49,134-70.93,135.07-83.56-63.89,20.18-137.34,33.46-201.34,38.8C242.93,202.43,218.92,192,188.93,184.55Zm-1.7,450.81c4.48-.21,22.79-3.13,80.43,2.82,107.66,11.11,154.5,29.66,205.46,57.21,71.17,38.49,97.93,68.1,93.94,58-25.15-63.61-24-63.42-32.15-72-.09-.1-50.18-37.38-85.93-58.38-111-65.21-208.61-36.93-220.9-25.67C227.54,597.87,190.07,632.26,187.23,635.36ZM115.05,132.12c1.38,15.41,3.2,74,1,113.55C113.87,286.66,95.59,370,88,388.42c-1,2.39-6.91,18.41-6.8,20.34,5.15.23,43.57-1.19,43.47-1.18,10.08-.31,25.37-9.14,35.55-18.75,6.1-5.77,18.52-33.2,21.85-41.27,26.72-64.76,17-97.47,10.77-125.82-1.44-6.57-7-28.52-12.14-32.91C162.67,173.32,118.58,134.77,115.05,132.12Zm.11-11.6c-.63,1.11-.38.35.55,1.16,55.38,48,74.83,86.77,275.2,57.58,28.81-4.19,106.06-19.57,132.74-30.8,12.12-5.1,14-15.55,23.41-38.75a12.36,12.36,0,0,0,.37-1.59C429.38,134.51,204.26,146.25,115.16,120.52ZM752.31,256.1c-3.77,1.55-76.34,34.74-76.22,34.68-3.88,1.77-56.82,84.57-17,158.91,9.1,17,23,31.77,25.54,34.76,5.83,6.89,6.49,5.83,95.17,37.67,7.79,2.8-4.58-2.65-17.85-32.79-12.88-29.25-27.87-55.46-31.15-120.56C727.72,307,751.9,258.48,752.31,256.1ZM574.06,748.52c1.3-3.66.3-4.61,4.4-16.58,5-14.58,5-20.06,9.78-38.31C604.83,629.7,662.4,559.51,740,533.29c17.24-5.82,28.17-3.74,30.21-5.87-1.4-.53-73.6-26.68-77.64-28-5.58-1.87-3.25-1.34-24.54,3.75-81.54,19.47-140.11,129.52-116.59,188.66C576.34,754.41,572.13,744.26,574.06,748.52Zm-40.53-78.28c.41-.44.57,0-.53-2.79-31-78.18-29.09-75.59-35.83-84.17-31.26-39.81-129.84-71.48-200.53-47.4-3.82,1.3-1.87-.27-48.84,43.24-1.1,1-2.37,2.31-.91,2C386,546.64,486.34,639.16,533.53,670.24Zm140.39-177c.15-1.12,6.65,2.18-86.13-31.69-8.21-3-22.3,4.43-29.21,9.67-36.33,27.5-54.67,83.26-52.65,95.08,2.22,13,3.45,19.26,8.5,32.12,25,63.52,22.89,58.06,23.63,58.41,6.76-77.17,62.09-141.53,119.55-159.3C661.25,496.42,665.32,495.42,673.92,493.25ZM555.32,111.5c-2.62,5.63-6.81,16.81-12,28.93-2.75,6.4-4.38,17.33-2.27,22.6,4.35,10.9,14,42,37.17,71,24.41,30.55,65.62,62.65,101.17,46.34,75.64-34.69,65.27-29.63,68.7-31.57C737.81,241,605.53,233.74,555.32,111.5ZM148.91,509.58C182.42,594.3,178.16,627.47,179,631.37c47.19-40.4,47.19-44.36,46.42-50.48-.91-7.3-3.25-58.39-24.91-99.63-18.19-34.63-49.15-66.64-61.25-65.9C42.51,421.28,104.25,396.64,148.91,509.58ZM159,406.24c3.87.24,14.58-.46,31.87-.84,4.8-.11,12.93-1.24,17.06-3.9,34.55-22.28,59.13-63.32,62.78-97.94,4.45-42.23,7-30.54-72.17-99.22-10.59-9.19,19.81,34.09,5.6,98.43C189.36,369.71,159.86,404.66,159,406.24Zm502.1-108c-.47-.57,3.61-2.33-36.56,16.07-14.93,6.84-28.83,12.55-41.93,26.58-24.82,26.6-23.35,74.81-7.89,104.86,2.1,4.08,4.14,3.86,24.82,11.32,80.12,28.91,73.4,27.08,71.39,24.4C632.14,429.61,620.18,383.54,661.1,298.28ZM650,293.71c-1.83-2.33-18.28-1.65-45.87-22.74-51-39-65.31-93.31-71-105.12-1.17,2.07-23,56.12-30.4,74-4,9.55,20.51,81.29,72.2,82.11C591.44,322.18,582.12,325.16,650,293.71ZM277,259.8c-.95,1.42,29.43,27.71,50.88,33.85,24.62,7.06,50.74,9.84,75.34,3.53,26.2-6.72,58.87-20.42,78.41-41.12,12.69-13.44,34.44-69.42,36.24-75.41C440.88,243.83,381.21,259.8,277,259.8Zm-119,155.12c88.65,79.59,68.92,172.39,77.64,164.34,39.88-36.82,49.92-40.76,47.44-72.13-4-50.17-53.09-90.85-78.16-92.9C189,412.93,158,414.91,157.93,414.92Zm122.62-139.3c-1.46,11.49,1.83,30.38-10.33,61.35-12.63,32.16-29,47.95-51.69,67.3.1,0,64.33-.3,70.26-4.21,28-18.47,44.65-78.74,20.75-99.44C300.6,292.89,281.55,276.43,280.55,275.62ZM497.88,556.36c1.13-.18,13.68-71.81,72.47-101-5.64-2.22-54.33-19.64-64.88-23.54-4.15-1.53-42.34,17.6-36.33,51.41C469.61,485.88,496.31,553,497.88,556.36ZM324.46,302.76c58.4,50.67,55.29,49.18,61,50,36.39,5.42,70.85-21,73.27-26.93,26.27-64.62,22.64-55.09,23.88-59-3.59,2.6-8,8-23.9,16.94C369.39,334.24,310.12,290.32,324.46,302.76ZM226,412.94c71.84,45.79,63.85,92.92,65.48,108.5,52.17-40.83,37.3-111.81-5.22-110.79C286.13,410.65,224.74,412.15,226,412.94ZM495.25,258.35c-2.66,6-27.29,66.73-32,78a5.07,5.07,0,0,0-.18,4.27,47.78,47.78,0,0,0,2.38,5.19c5.37,9,15.64,15.77,21.25,17.7,8.23,2.84,7.5,1.35,46.76-16.57,33.68-15.37,31.21-14.07,31.77-15C524.54,321.05,509.07,294.07,495.25,258.35ZM572,338.93c-.63-.58-77.23,33.81-77.87,36-6.36,22,6.7,46.55,17,50.26,58.93,21.18,50.47,18.32,53.67,19.13-10.88-29.26-11.47-54.9-6.3-74.89C562.81,352.69,567.23,346.82,572,338.93ZM328.4,317.12c-1.59,2.86,6.58,22.27-9.92,59.32-7.87,17.66-15.77,22.5-17.23,24.92.86.53-1.57.29,43.67-1.08,14-.43,36.08-37.74,29.48-43.42C359.81,344.28,329.27,317.82,328.4,317.12Zm42.26,148.93c17.22-4.1,32.29-7.06,51.18-5.33,21,1.92,27.47,6.22,31.82,7.18-.94-3.46-21.82-55.83-23-57.6C426.2,413.69,372.5,463.53,370.66,466.05Zm-49.32,33.29c.58.79,26.13-23,28.73-28,12.77-24.72,13.93-64.46-13.7-62.58-39.74,2.7-19.4-4.76-9.84,19.17C336.89,453.81,334.27,475.83,321.34,499.34Zm42.73-38.92c3.83-3.35,56.13-51.79,56.23-51.89,3.07-2.85,2.29-2.57-.49-2.48-64.94,2.07-57.87,1.93-59.92,2.31C366.64,425.25,369.75,434.23,364.07,460.42ZM492.5,427.64C492,427,440,408,439.44,408.5c.46,2.25,20.68,53.23,21.93,55.18C467.25,447.72,478.12,436.14,492.5,427.64Zm-99.58-65.88C395.27,364.4,428.39,393,430.1,394c1.75-.44,21-49.71,21.16-50.36C433,355.25,414.8,362.5,392.92,361.76Zm-30,37.88c63.73-2.1,54.85-1.73,57.9-2.09-1-1.44,4,3.05-37.37-32.82C379.36,378.79,372.7,388.89,362.88,399.64Zm76.58-.4c2.77,1.17-4.57-1.49,50.63,18.37,3.69,1.33,2,.71-1-7.11-7.19-18.61-4.23-28.3-4.5-32C481.68,379.39,441.17,398,439.46,399.24Zm42.39-28.75c-22.72-11.26-22.8-23.75-24.5-19.61-16.76,40.91-14.76,35.67-14.87,37.61C455.59,382.48,468.45,376.67,481.85,370.49Z" fill="inherit"/></g></svg>